<svg preserveAspectRatio="none" width="100%" height="100%" overflow="visible" style="display: block;" viewBox="0 0 233 233" fill="none" xmlns="http://www.w3.org/2000/svg">
<path id="Vector" d="M155.99 27.8443C157.455 29.3102 159.283 30.359 161.288 30.8826C163.293 31.4061 165.401 31.3855 167.395 30.8229C169.389 30.2602 171.197 29.1759 172.632 27.6817C174.067 26.1874 175.078 24.3374 175.561 22.3222C176.77 17.2883 179.299 12.6677 182.887 8.93623C186.476 5.2048 190.994 2.49741 195.977 1.09289C200.959 -0.311626 206.226 -0.362506 211.235 0.94549C216.244 2.25349 220.814 4.87308 224.474 8.5345C228.134 12.1959 230.751 16.7668 232.058 21.7764C233.364 26.7861 233.311 32.0534 231.905 37.036C230.499 42.0185 227.79 46.5362 224.058 50.1237C220.326 53.7113 215.705 56.239 210.671 57.4467C208.656 57.9289 206.806 58.9399 205.312 60.3754C203.818 61.8109 202.733 63.619 202.171 65.6132C201.608 67.6074 201.587 69.7156 202.111 71.7204C202.635 73.7252 203.683 75.5541 205.149 77.0185L224.754 96.6136C227.366 99.2251 229.437 102.325 230.851 105.738C232.264 109.15 232.991 112.807 232.991 116.5C232.991 120.193 232.264 123.85 230.851 127.263C229.437 130.675 227.366 133.775 224.754 136.386L205.149 155.993C203.685 157.459 201.856 158.508 199.851 159.031C197.847 159.555 195.739 159.534 193.745 158.972C191.751 158.409 189.943 157.325 188.507 155.831C187.072 154.336 186.061 152.486 185.579 150.471C184.369 145.437 181.84 140.817 178.252 137.085C174.663 133.354 170.145 130.646 165.162 129.242C160.18 127.837 154.913 127.786 149.904 129.094C144.895 130.402 140.326 133.022 136.666 136.683C133.006 140.345 130.388 144.916 129.082 149.925C127.775 154.935 127.828 160.202 129.234 165.185C130.64 170.167 133.349 174.685 137.081 178.273C140.813 181.86 145.435 184.388 150.469 185.596C152.484 186.078 154.333 187.089 155.828 188.524C157.322 189.96 158.406 191.768 158.969 193.762C159.531 195.756 159.552 197.864 159.028 199.869C158.505 201.874 157.456 203.703 155.99 205.167L136.385 224.762C133.774 227.374 130.674 229.446 127.262 230.859C123.85 232.273 120.193 233 116.5 233C112.807 233 109.15 232.273 105.738 230.859C102.326 229.446 99.2264 227.374 96.6151 224.762L77.0098 205.156C75.5455 203.69 73.7168 202.641 71.7121 202.117C69.7074 201.594 67.5994 201.614 65.6054 202.177C63.6113 202.74 61.8034 203.824 60.368 205.318C58.9326 206.813 57.9217 208.663 57.4395 210.678C56.2302 215.712 53.7011 220.332 50.1126 224.064C46.5241 227.795 42.0059 230.503 37.0232 231.907C32.0406 233.312 26.7737 233.363 21.7648 232.055C16.756 230.747 12.1863 228.127 8.52638 224.466C4.86646 220.804 2.24858 216.233 0.94234 211.224C-0.363897 206.214 -0.311271 200.947 1.09479 195.964C2.50086 190.982 5.20954 186.464 8.94189 182.876C12.6742 179.289 17.2953 176.761 22.3293 175.553C24.3443 175.071 26.1942 174.06 27.6883 172.625C29.1825 171.189 30.2667 169.381 30.8293 167.387C31.3919 165.393 31.4125 163.284 30.889 161.28C30.3655 159.275 29.3167 157.446 27.8509 155.982L8.24564 136.386C5.63424 133.775 3.56275 130.675 2.14946 127.263C0.736168 123.85 0.00875496 120.193 0.00875496 116.5C0.00875496 112.807 0.736168 109.15 2.14946 105.738C3.56275 102.325 5.63424 99.2251 8.24564 96.6136L27.8509 77.0069C29.3153 75.541 31.144 74.4922 33.1487 73.9686C35.1533 73.445 37.2614 73.4656 39.2554 74.0282C41.2494 74.5909 43.0574 75.6752 44.4928 77.1695C45.9281 78.6637 46.9391 80.5138 47.4213 82.5289C48.6305 87.5628 51.1596 92.1835 54.7482 95.9149C58.3367 99.6463 62.8549 102.354 67.8375 103.758C72.8202 105.163 78.0871 105.214 83.0959 103.906C88.1048 102.598 92.6745 99.9781 96.3344 96.3166C99.9943 92.6552 102.612 88.0843 103.918 83.0747C105.225 78.065 105.172 72.7977 103.766 67.8152C102.36 62.8326 99.6512 58.315 95.9189 54.7274C92.1865 51.1399 87.5654 48.6121 82.5315 47.4045C80.5165 46.9222 78.6665 45.9112 77.1724 44.4757C75.6783 43.0402 74.594 41.2321 74.0314 39.2379C73.4688 37.2437 73.4482 35.1356 73.9718 33.1308C74.4953 31.1259 75.544 29.2971 77.0098 27.8326L96.6151 8.23751C99.2264 5.62591 102.326 3.55426 105.738 2.14086C109.15 0.727468 112.807 0 116.5 0C120.193 0 123.85 0.727468 127.262 2.14086C130.674 3.55426 133.774 5.62591 136.385 8.23751L155.99 27.8443Z" fill="var(--fill-0, white)" fill-opacity="0.225"/>
</svg>
