<svg preserveAspectRatio="none" width="100%" height="100%" overflow="visible" style="display: block;" viewBox="0 0 203.353 203.353" fill="none" xmlns="http://www.w3.org/2000/svg">
<g id="Frame" opacity="0.2">
<path id="Vector" d="M43.5527 128.096C43.5527 139.785 34.1056 149.232 22.4168 149.232C10.7281 149.232 1.28096 139.785 1.28096 128.096C1.28096 116.407 10.7281 106.96 22.4168 106.96H43.5527V128.096ZM54.1207 128.096C54.1207 116.407 63.5677 106.96 75.2565 106.96C86.9453 106.96 96.3924 116.407 96.3924 128.096V180.936C96.3924 192.625 86.9453 202.072 75.2565 202.072C63.5677 202.072 54.1207 192.625 54.1207 180.936V128.096Z" fill="var(--fill-0, white)"/>
<path id="Vector_2" d="M75.2565 43.2325C63.5677 43.2325 54.1206 33.7854 54.1206 22.0966C54.1206 10.4078 63.5677 0.960722 75.2565 0.960722C86.9453 0.960722 96.3924 10.4078 96.3924 22.0966V43.2325H75.2565ZM75.2565 53.9605C86.9453 53.9605 96.3924 63.4076 96.3924 75.0964C96.3924 86.7852 86.9453 96.2323 75.2565 96.2323H22.2567C10.5679 96.2323 1.12084 86.7852 1.12084 75.0964C1.12084 63.4076 10.5679 53.9605 22.2567 53.9605H75.2565Z" fill="var(--fill-0, white)"/>
<path id="Vector_3" d="M159.96 75.0964C159.96 63.4076 169.407 53.9605 181.096 53.9605C192.785 53.9605 202.232 63.4076 202.232 75.0964C202.232 86.7852 192.785 96.2323 181.096 96.2323H159.96V75.0964ZM149.392 75.0964C149.392 86.7852 139.945 96.2323 128.256 96.2323C116.568 96.2323 107.12 86.7852 107.12 75.0964V22.0966C107.12 10.4078 116.568 0.960722 128.256 0.960722C139.945 0.960722 149.392 10.4078 149.392 22.0966V75.0964Z" fill="var(--fill-0, white)"/>
<path id="Vector_4" d="M128.256 159.8C139.945 159.8 149.392 169.247 149.392 180.936C149.392 192.625 139.945 202.072 128.256 202.072C116.568 202.072 107.12 192.625 107.12 180.936V159.8H128.256ZM128.256 149.232C116.568 149.232 107.12 139.785 107.12 128.096C107.12 116.407 116.568 106.96 128.256 106.96H181.256C192.945 106.96 202.392 116.407 202.392 128.096C202.392 139.785 192.945 149.232 181.256 149.232H128.256Z" fill="var(--fill-0, white)"/>
</g>
</svg>
