<svg width="24" height="24" viewBox="0 0 24 24" fill="none" xmlns="http://www.w3.org/2000/svg">
<path fill-rule="evenodd" clip-rule="evenodd" d="M24 24H0V0H24V24ZM6.75 4.125C5.50736 4.125 4.5 5.13236 4.5 6.375V16.5363C4.5 17.4652 5.06304 18.2623 5.86633 18.6057C6.23078 19.357 7.00082 19.875 7.89185 19.875H10.3597C11.3483 19.8749 12.1873 19.2369 12.4893 18.3505C12.627 18.4516 12.7765 18.5377 12.9357 18.6057C13.3001 19.357 14.0702 19.875 14.9612 19.875H17.4291C18.6716 19.8749 19.679 18.8675 19.6791 17.625V7.46375C19.6791 6.53471 19.1159 5.73729 18.3124 5.39392C17.9479 4.64289 17.1781 4.12501 16.2872 4.125H13.8193C12.8308 4.12504 11.9915 4.76277 11.6895 5.64917C11.5517 5.54804 11.4022 5.46193 11.243 5.39392C10.8785 4.64291 10.1087 4.12505 9.2179 4.125H6.75Z" fill="black"/>
<path d="M8.73214 5.625V16.875H6V5.625H8.73214ZM16.5589 5.625V16.875H13.8268V5.625H16.5589ZM14.8714 9.72321V12.1339H7.78393V9.72321H14.8714Z" fill="black"/>
</svg>
