<svg preserveAspectRatio="none" width="100%" height="100%" overflow="visible" style="display: block;" viewBox="0 0 119 57" fill="none" xmlns="http://www.w3.org/2000/svg">
<g id="Frame" clip-path="url(#clip0_0_4)">
<path id="Vector" d="M0.590249 19.1678L21.1802 12.9531L26.0798 5.14179L26.7805 10.4999L28.2714 8.70971L38.5303 21.01L35.7288 25.59L44.3161 25.7198L48.064 49.1607L41.9811 48.0038L45.3031 51.0223L38.501 49.0161L18.2986 55.4179L1.37403 45.0108L0.590249 19.1678Z" fill="var(--fill-0, #AF8D67)"/>
<path id="Vector_2" d="M21.1802 12.9531L0.590249 19.1678L1.37403 45.0108M21.1802 12.9531L24.028 37.8304M21.1802 12.9531L26.0798 5.14179L26.7805 10.4999M1.37403 45.0108L24.028 37.8304M1.37403 45.0108L18.2986 55.4179L38.501 49.0161M24.028 37.8304L30.0173 33.3626L27.4969 18.0335M24.028 37.8304L38.501 49.0161M24.028 37.8304L32.0149 38.9481L38.6591 44.9853M26.7805 10.4999L28.2714 8.70971L38.5303 21.01L35.7288 25.59M26.7805 10.4999L27.4969 18.0335M27.4969 18.0335L35.7288 25.59M38.501 49.0161L45.3031 51.0223L41.9811 48.0038M38.6591 44.9853L35.7288 25.59M38.6591 44.9853L41.9811 48.0038M41.9811 48.0038L48.064 49.1607L44.3161 25.7198L35.7288 25.59" stroke="var(--stroke-0, #956F43)" stroke-width="3"/>
<path id="Vector_3" d="M12.2634 17.328H35.6546L41.3321 46.512L12.2634 43.32V17.328Z" fill="var(--fill-0, #AF8D67)"/>
<path id="Vector_4" d="M36.9754 26.1965L38.5185 44.4621L32.1325 38.6647L24.6528 37.6396L29.708 33.7255L27.6825 18.4621L36.9754 26.1965Z" fill="var(--fill-0, #74522A)"/>
<path id="Vector_5" d="M108.462 30.1156L108.86 29.9581L114.187 20.5399L114.079 20.0859C112.366 18.9475 109.319 18.094 105.435 17.5769C101.537 17.0578 96.7479 16.8717 91.5108 17.1C85.1381 17.2079 79.8685 18.2086 74.7009 19.1898C73.7948 19.3619 72.8916 19.5334 71.9861 19.6994C65.9153 20.8124 59.7173 21.6838 51.7041 20.8637C44.9277 20.1702 40.2683 19.0927 36.159 18.1426C35.3955 17.9661 34.651 17.7939 33.9157 17.6295C29.212 16.5777 24.888 15.8437 18.3712 16.3028C17.5852 16.3582 17.0772 16.4118 16.8177 16.4755C16.7535 16.4912 16.6778 16.5136 16.6117 16.5498C16.5792 16.5677 16.5263 16.601 16.4809 16.658C16.4294 16.7226 16.3847 16.8235 16.4031 16.9451C16.4195 17.0539 16.4788 17.1253 16.5151 17.161C16.5532 17.1984 16.5932 17.2235 16.6218 17.2394C16.6796 17.2714 16.7457 17.2958 16.8058 17.3151C17.0437 17.3914 17.4673 17.4726 17.9779 17.5644C18.1373 17.593 18.3072 17.623 18.4859 17.6545C18.8937 17.7265 19.348 17.8067 19.8311 17.898C21.2219 18.1608 22.8162 18.5096 24.1111 18.9935C24.759 19.2356 25.3159 19.5058 25.7308 19.8054C26.1489 20.1073 26.3889 20.4142 26.468 20.7199C26.897 22.3777 27.5167 24.6869 28.2264 26.479C28.5793 27.3703 28.9658 28.1639 29.3789 28.6863C29.5847 28.9467 29.8184 29.1671 30.0838 29.285C30.3418 29.3995 30.618 29.4109 30.8857 29.2918C32.4598 29.236 33.9118 29.1676 35.2565 29.104C38.8576 28.9341 41.6888 28.8005 44.0327 29.0451C45.637 29.2125 46.988 29.5561 48.1789 30.1769C49.3675 30.7964 50.4142 31.7011 51.3971 33.0153C51.9923 33.811 53.1349 34.2018 54.5699 34.3605C56.0249 34.5213 57.8781 34.4531 60.013 34.2383C63.7145 33.8655 68.3249 33.0443 73.2877 32.1603C74.0512 32.0242 74.8233 31.8867 75.6016 31.7492C81.4466 30.7157 87.6585 29.6756 93.4202 29.2111C99.189 28.746 104.468 28.8618 108.462 30.1156Z" fill="var(--fill-0, #FFF537)" stroke="var(--stroke-0, white)" stroke-width="3" stroke-linejoin="bevel"/>
<path id="Vector_6" d="M109.31 41.3145C109.567 41.5382 109.568 41.5377 109.568 41.5377L109.568 41.537L109.569 41.5359L109.572 41.5332C109.573 41.5311 109.575 41.5286 109.578 41.5256C109.583 41.5197 109.589 41.512 109.596 41.5026C109.61 41.4837 109.629 41.4575 109.652 41.4235C109.698 41.3556 109.76 41.2561 109.831 41.1205C109.973 40.8487 110.152 40.4322 110.322 39.83C110.66 38.6262 110.957 36.6804 110.83 33.6669C110.703 30.6441 110.096 28.9216 109.489 27.943C109.185 27.4528 108.882 27.1516 108.642 26.9694C108.523 26.8787 108.421 26.8185 108.344 26.7797C108.306 26.7601 108.274 26.7462 108.249 26.7362C108.239 26.7323 108.231 26.7291 108.223 26.7264C102.942 24.3912 98.901 23.9126 91.0357 24.6359C86.357 25.0663 81.5382 26.0182 76.762 26.9619C75.6016 27.1911 74.4436 27.42 73.2908 27.6407C67.3792 28.7722 61.597 29.6922 56.2248 29.4125C48.019 28.985 43.0467 27.9063 39.0652 26.8224C38.1674 26.578 37.3167 26.3319 36.488 26.0925C33.66 25.2754 31.0899 24.5326 27.7872 24.1748C27.3607 24.0125 26.9651 23.9703 26.6067 24.0588C26.2327 24.1511 25.939 24.3762 25.7156 24.6726C25.2823 25.2469 25.084 26.1254 25.0066 27.0305C24.8501 28.8586 25.1671 31.0702 25.4494 32.018L25.697 32.2527C28.4149 32.9015 30.9073 33.4802 33.1787 34.0076C36.3527 34.7445 39.0954 35.3813 41.4195 35.9697C45.4192 36.9823 48.1117 37.8368 49.5971 38.778C49.8517 38.9392 50.245 39.045 50.7097 39.1232C51.1879 39.2035 51.7895 39.2611 52.4958 39.302C53.9093 39.3834 55.7717 39.3977 57.9639 39.3761C60.1913 39.3542 62.7773 39.2949 65.5917 39.2301C68.3051 39.1679 71.2308 39.1009 74.2528 39.0575C86.6122 38.8808 100.671 39.1034 109.213 41.6424L109.567 41.5382L109.31 41.3145Z" fill="var(--fill-0, #F68887)" stroke="var(--stroke-0, white)" stroke-width="3" stroke-linejoin="bevel"/>
<path id="Vector_7" d="M27.6094 32.2625L27.387 32.3306C25.8716 33.4788 24.759 34.4843 23.9765 35.3669C23.1964 36.247 22.7295 37.0215 22.5307 37.7091C22.3284 38.4089 22.4051 39.0174 22.7046 39.5265C22.9968 40.0236 23.4798 40.3895 24.0253 40.6622C25.1122 41.2053 26.5688 41.4369 27.7234 41.5375C28.3066 41.5883 28.8237 41.6064 29.1954 41.6118C29.3814 41.6146 29.5313 41.6141 29.6353 41.613C29.6873 41.6123 29.7277 41.6116 29.7555 41.6109C29.7693 41.6107 29.78 41.6105 29.7875 41.6102L29.7907 41.61C34.0313 41.6752 37.7294 42.6084 41.9121 43.6638C42.3268 43.7685 42.746 43.8743 43.1709 43.9805C47.8827 45.1586 53.2659 46.3836 60.6253 46.626C64.3243 46.7478 68.4974 46.1969 72.8616 45.4098C75.0452 45.0159 77.2814 44.5619 79.5338 44.1018C79.6782 44.0722 79.8227 44.0428 79.9671 44.0131C82.078 43.5817 84.2011 43.1476 86.312 42.7541C90.8242 41.9128 95.2643 41.2591 99.3741 41.211C103.485 41.1631 107.241 41.7215 110.399 43.2847L110.882 43.0496C111.56 39.8307 111.565 37.7333 111.391 36.4264C111.303 35.7725 111.171 35.3158 111.056 35.016C110.998 34.866 110.944 34.7556 110.903 34.6793C110.882 34.6412 110.865 34.6118 110.851 34.5903C110.844 34.5796 110.839 34.5707 110.834 34.5639C110.832 34.5605 110.83 34.5575 110.828 34.5552L110.825 34.5518L110.824 34.5504L110.824 34.5498C110.824 34.5498 110.824 34.5491 110.549 34.7508L110.824 34.5491L110.745 34.4713C107.961 32.5012 104.335 31.9054 100.233 32.0563C96.1288 32.2073 91.4985 33.1086 86.6708 34.1804C85.442 34.4533 84.2004 34.7369 82.9512 35.0226C74.3498 36.9887 65.3764 39.04 57.6058 38.1918C48.6567 37.2153 42.8264 35.8227 38.4107 34.6316C37.6406 34.4239 36.9116 34.2217 36.2151 34.0285C32.9296 33.117 30.3648 32.4054 27.6094 32.2625Z" fill="var(--fill-0, #91CCF4)" stroke="var(--stroke-0, white)" stroke-width="3" stroke-linejoin="bevel"/>
<path id="Vector_8" d="M43.6151 38.061C41.8923 37.82 40.3103 39.0612 40.0837 40.8316C40.0312 41.242 40.0819 41.6408 40.1716 42.0323L24.3228 47.217C23.7718 47.6493 35.4066 46.4976 35.8294 47.066C36.0463 47.3574 36.3577 47.5056 36.6824 47.551C37.007 47.5964 37.3462 47.5264 37.6272 47.3175L41.7002 44.0872C42.0318 44.2774 42.3931 44.4324 42.805 44.4901C44.5278 44.7311 46.6925 43.4319 46.5161 41.2279L43.5728 42.2368L42.4151 40.8916L44.5578 38.2728C44.5578 38.2728 43.8258 38.1034 43.626 38.0755L43.6151 38.061Z" fill="var(--fill-0, #242E3F)"/>
<path id="Vector_9" d="M25.1363 31.4847L25.5091 33.6004C25.3961 33.7292 25.3148 33.8776 25.2337 34.0263L23.1128 34.3471L22.7528 35.9877L24.5288 37.2392C24.5487 37.4239 24.5649 37.5717 24.5992 37.7477L23.381 39.4834L24.2839 40.8982L26.4051 40.5774C26.5513 40.6843 26.6798 40.7628 26.8402 40.861L27.2133 42.9766L28.8734 43.3733L30.0916 41.6376C30.2539 41.6166 30.4252 41.6095 30.6016 41.5797L32.3775 42.8312L33.7806 41.9673L33.4077 39.8517C33.4976 39.7174 33.6018 39.5742 33.6829 39.4258L35.804 39.105L36.164 37.4643L34.388 36.2128C34.3628 36.0507 34.3426 35.866 34.3176 35.7041L35.5356 33.9686L34.6326 32.5538L32.5118 32.8746C32.3884 32.7732 32.2279 32.6749 32.0766 32.5908L31.7035 30.4752L30.0434 30.0787L28.8253 31.8142C28.6629 31.8354 28.4773 31.8511 28.315 31.8723L26.539 30.6206L25.1363 31.4847ZM28.0949 34.5897C29.2595 33.8726 30.8044 34.2415 31.5538 35.4157C32.3033 36.5901 31.9681 38.1168 30.8037 38.8341C29.6392 39.5512 28.0944 39.182 27.345 38.0078C26.5956 36.8336 26.9306 35.3067 28.0949 34.5897Z" fill="var(--fill-0, #242E3F)"/>
<path id="Vector_10" d="M0.690507 19.196L21.2804 12.9814L26.1802 5.17008L26.8806 10.5282L27.5973 18.0618L30.1174 33.3908L24.1284 37.8587L32.115 38.9764L38.7593 45.0136L42.0813 48.0321L45.4035 51.0506L38.6012 49.0444L18.3989 55.4462L1.47429 45.0391L0.690507 19.196Z" fill="var(--fill-0, #AF8D67)"/>
<path id="Vector_11" d="M21.2804 12.9814L0.690507 19.196L1.47429 45.0391M21.2804 12.9814L24.1284 37.8587M21.2804 12.9814L26.1802 5.17008L26.8806 10.5282L27.5973 18.0618L30.1174 33.3908L24.1284 37.8587M1.47429 45.0391L24.1284 37.8587M1.47429 45.0391L18.3989 55.4462L38.6012 49.0444M24.1284 37.8587L38.6012 49.0444M24.1284 37.8587L32.115 38.9764L38.7593 45.0136L42.0813 48.0321L45.4035 51.0506L38.6012 49.0444" stroke="var(--stroke-0, #956F43)" stroke-width="3"/>
<path id="Vector_12" d="M41.5671 25.577C41.6289 26.3463 41.5278 27.0096 41.2639 27.5661C41.0055 28.1165 40.6183 28.5789 40.1023 28.953C39.592 29.3206 38.9709 29.6049 38.2394 29.8053C37.5084 30.0116 36.7065 30.1494 35.8338 30.218C35.4388 30.2492 35.026 30.2428 34.5952 30.1993C34.165 30.1619 33.737 30.0794 33.3116 29.9521C32.8856 29.8188 32.4738 29.6427 32.0764 29.4239C31.6792 29.2052 31.3161 28.933 30.9875 28.6074C30.6641 28.2756 30.3811 27.8899 30.1381 27.4505C29.901 27.0107 29.73 26.5059 29.6251 25.9366L33.4749 25.5531C33.4765 25.7198 33.484 25.8889 33.4978 26.0604C33.5114 26.2321 33.5257 26.4097 33.5405 26.593C33.5818 27.1078 33.6418 27.6331 33.7204 28.1689C34.0715 28.1831 34.4217 28.1851 34.7712 28.1756C35.1204 28.166 35.469 28.1475 35.817 28.1202C36.1646 28.0928 36.5089 28.0568 36.8496 28.0121C37.19 27.9674 37.5356 27.9104 37.8861 27.8411C37.8995 27.6375 37.9074 27.4405 37.9099 27.2496C37.9117 27.0529 37.9047 26.8541 37.8886 26.6527C37.8624 26.3274 37.8154 26.0004 37.7478 25.6723C37.6798 25.3443 37.6001 25.0168 37.5088 24.6906C37.0921 24.6758 36.6132 24.6598 36.072 24.6429C35.5306 24.6261 34.9724 24.5836 34.3974 24.5157C33.8278 24.4414 33.2641 24.331 32.7064 24.1842C32.1543 24.0312 31.6533 23.8146 31.2037 23.5344C30.7533 23.2482 30.3802 22.8846 30.0836 22.4434C29.7872 22.0022 29.6126 21.4532 29.5599 20.7963C29.5234 20.3406 29.5726 19.9198 29.7078 19.534C29.849 19.1477 30.0493 18.7984 30.3091 18.4861C30.5744 18.1675 30.8869 17.8839 31.2466 17.6352C31.6122 17.386 31.9987 17.174 32.4059 16.999C32.8192 16.8235 33.241 16.6831 33.6718 16.5778C34.1024 16.4724 34.5211 16.4037 34.9279 16.3717C35.8183 16.3016 36.6136 16.3789 37.314 16.6037C38.0144 16.8285 38.6125 17.1476 39.1085 17.5612C39.61 17.9684 40.0099 18.4431 40.3085 18.9853C40.6072 19.5276 40.7997 20.0782 40.886 20.6371L36.8791 21.3903C36.8905 21.1631 36.8902 20.9368 36.878 20.7115C36.8714 20.4797 36.8589 20.2514 36.8409 20.0265C36.7996 19.5117 36.7224 18.9937 36.6095 18.4726C36.4065 18.4587 36.2044 18.4538 36.0029 18.4578C35.8076 18.4613 35.6096 18.4709 35.4091 18.4867C34.6131 18.5493 33.816 18.7103 33.018 18.9697C33.0182 19.1186 33.0239 19.264 33.0352 19.406C33.0466 19.5481 33.0577 19.6871 33.0686 19.8233C33.102 20.2375 33.1494 20.6447 33.2112 21.0448C33.2784 21.4385 33.3752 21.8329 33.5019 22.2279C33.9965 22.2544 34.5329 22.2837 35.1109 22.3156C35.6886 22.3416 36.2684 22.3942 36.8503 22.4735C37.4375 22.5463 38.0039 22.6536 38.5494 22.7953C39.1001 22.9306 39.59 23.1183 40.0185 23.3586C40.4527 23.5923 40.8091 23.8919 41.0875 24.2569C41.3654 24.6162 41.5253 25.0563 41.5671 25.577Z" fill="var(--fill-0, #242E3F)"/>
<path id="Vector_13" d="M84.6367 16.8777C84.1775 18.5033 83.726 19.9002 83.2823 21.0685C82.8385 22.2367 82.4411 23.1981 82.0902 23.9523C81.679 24.8347 81.2868 25.5704 80.9134 26.16C80.9193 26.2911 80.9309 26.4423 80.9484 26.6138C80.965 26.7793 80.9868 26.9619 81.014 27.1619C81.0581 27.4854 81.1112 27.8317 81.1734 28.2006C81.2357 28.5698 81.2993 28.9266 81.364 29.2713C81.4348 29.6151 81.5014 29.9296 81.5641 30.2148C81.632 30.4932 81.6908 30.7068 81.741 30.8557L76.8556 31.6058C76.8656 31.5025 76.8699 31.3372 76.8688 31.1097C76.8726 30.8755 76.8701 30.6154 76.8608 30.329C76.8567 30.036 76.8449 29.7291 76.8249 29.4084C76.8111 29.0866 76.797 28.7861 76.7827 28.5064C76.7677 28.2209 76.7518 27.9715 76.7346 27.7581C76.7234 27.544 76.7155 27.3983 76.7109 27.321C76.405 26.961 76.0771 26.5679 75.7265 26.142C75.3751 25.7104 75.0093 25.2597 74.6291 24.7898C74.2478 24.3141 73.8593 23.8274 73.4632 23.3299C73.0662 22.8262 72.6752 22.322 72.29 21.817C71.9042 21.306 71.5247 20.8001 71.1522 20.2993C70.7852 19.7977 70.4385 19.3114 70.1117 18.8404L75.1269 18.3874C75.3045 18.7707 75.5253 19.2082 75.7894 19.6997C76.0533 20.1912 76.3483 20.7144 76.6746 21.2694C77 21.8185 77.3516 22.3821 77.7286 22.9601C78.1058 23.5383 78.4932 24.1028 78.8906 24.6543C79.207 23.8208 79.504 22.9778 79.782 22.1256C79.8996 21.7622 80.0207 21.3804 80.1454 20.9802C80.2698 20.5799 80.3877 20.1746 80.499 19.7642C80.6093 19.3479 80.712 18.9387 80.8065 18.5365C80.9 18.1285 80.9781 17.7375 81.0406 17.3636L84.6367 16.8777Z" fill="var(--fill-0, #242E3F)"/>
<path id="Vector_14" d="M109.142 25.9637C109.277 25.4252 109.384 24.8593 109.465 24.2656C109.551 23.6671 109.611 23.0565 109.647 22.4342C109.685 21.7755 109.696 21.1205 109.681 20.4691C109.667 19.8125 109.628 19.1805 109.564 18.573C109.28 18.4727 108.969 18.3813 108.631 18.2987C108.34 18.2241 108 18.1518 107.61 18.0817C107.225 18.0119 106.805 17.9634 106.35 17.9363C106.263 17.9311 106.172 17.9257 106.079 17.9201C105.986 17.9146 105.893 17.9142 105.799 17.919C105.794 18.0072 105.786 18.1576 105.774 18.3703C105.761 18.5829 105.746 18.8448 105.729 19.156C105.717 19.4623 105.699 19.81 105.677 20.199C105.66 20.5831 105.642 20.9879 105.623 21.4135C105.604 21.8391 105.587 22.2752 105.572 22.7219C105.557 23.1684 105.545 23.6101 105.535 24.0467C105.526 24.4833 105.517 24.9044 105.51 25.3098C105.508 25.7104 105.51 26.08 105.516 26.4188C105.993 26.4263 106.448 26.4067 106.88 26.3595C107.318 26.3128 107.705 26.2604 108.04 26.2024C108.433 26.1322 108.8 26.0526 109.142 25.9637ZM105.078 15.9869C105.687 16.0232 106.311 16.0916 106.948 16.1921C107.59 16.2929 108.208 16.4416 108.804 16.6385C109.404 16.8356 109.968 17.0904 110.494 17.4029C111.02 17.7153 111.473 18.0988 111.851 18.5533C112.235 19.0081 112.528 19.546 112.731 20.167C112.934 20.7828 113.013 21.4978 112.966 22.3121C112.921 23.1005 112.778 23.7945 112.537 24.3942C112.295 24.9938 111.983 25.5164 111.6 25.9619C111.222 26.4026 110.786 26.7695 110.293 27.0627C109.799 27.3559 109.275 27.5875 108.721 27.7574C108.172 27.9277 107.606 28.0397 107.023 28.0932C106.439 28.1521 105.868 28.1648 105.31 28.1316C104.767 28.0992 104.29 28.0577 103.878 28.0071C103.466 27.9617 103.116 27.9175 102.828 27.8744C102.494 27.8231 102.205 27.7695 101.959 27.7132C102.079 26.7002 102.191 25.6894 102.295 24.681C102.4 23.6723 102.481 22.6572 102.539 21.6355C102.568 21.1324 102.588 20.6522 102.598 20.1948C102.614 19.7378 102.624 19.2857 102.629 18.8384C102.634 18.3911 102.634 17.941 102.628 17.4879C102.629 17.0299 102.628 16.5459 102.626 16.0358C103.059 15.9784 103.483 15.9516 103.898 15.9555C104.312 15.9542 104.706 15.9647 105.078 15.9869Z" fill="var(--fill-0, #242E3F)"/>
<path id="Vector_15" d="M57.775 27.5362C57.6675 27.8664 57.5149 28.1557 57.3173 28.4045C57.1211 28.6491 56.8854 28.857 56.6102 29.0287C56.3363 29.1961 56.0272 29.3283 55.6829 29.4255C55.3386 29.5228 54.9662 29.5848 54.5654 29.6117L56.2284 34.0076L53.1969 33.3644L52.4116 29.5189C52.2728 29.5011 52.1304 29.4797 51.9844 29.4551C51.8386 29.4302 51.6905 29.4047 51.5404 29.3785C51.4321 29.8256 51.324 30.2939 51.2161 30.7832C51.1123 31.2741 51.0024 31.798 50.8864 32.355L47.8289 31.5766C48.2672 30.5167 48.6844 29.4569 49.0807 28.3972C49.4826 27.3345 49.8615 26.2572 50.2169 25.1653C50.3091 24.8816 50.391 24.6226 50.4626 24.3885C50.5384 24.1557 50.6079 23.9279 50.6711 23.7052C50.7385 23.4835 50.8039 23.2544 50.867 23.0173C50.9302 22.7804 51.0001 22.5152 51.0769 22.2218C51.6378 22.2337 52.1924 22.2928 52.7413 22.3991C53.2941 22.5068 53.8529 22.654 54.4175 22.8406C54.6998 22.9338 54.9991 23.0538 55.3152 23.2006C55.6316 23.3472 55.9368 23.5207 56.2309 23.7211C56.5293 23.9227 56.8025 24.1514 57.0507 24.4067C57.303 24.6637 57.5058 24.951 57.6591 25.2688C57.8165 25.588 57.911 25.9357 57.9426 26.3117C57.9741 26.6879 57.9183 27.096 57.775 27.5362ZM53.1408 23.9024C52.915 24.5964 52.7006 25.2688 52.4983 25.919C52.3016 26.5666 52.1113 27.2373 51.9274 27.9314L52.1865 28.0171C52.5573 28.1395 52.9337 28.2522 53.3154 28.355C53.6974 28.4576 54.0664 28.5351 54.423 28.5873C54.5563 28.3782 54.6832 28.1318 54.8036 27.8481C54.9294 27.5616 55.0441 27.2597 55.1474 26.9421C55.2135 26.7389 55.2732 26.5337 55.3268 26.3265C55.3818 26.1149 55.4297 25.9104 55.4706 25.7129C55.5128 25.5111 55.5432 25.3173 55.5619 25.1313C55.5846 24.9466 55.5978 24.7774 55.6009 24.6238C55.5448 24.596 55.4774 24.5665 55.3986 24.536C55.3241 24.5066 55.2385 24.476 55.1415 24.4439C54.9478 24.3798 54.735 24.3167 54.5034 24.2542C54.2758 24.1931 54.0589 24.1354 53.8527 24.0814C53.6154 24.0216 53.3781 23.9621 53.1408 23.9024Z" fill="var(--fill-0, #242E3F)"/>
<path id="Vector_16" d="M99.9189 19.6927C99.9598 20.0259 99.9443 20.3421 99.8728 20.6412C99.8008 20.9361 99.6795 21.2152 99.5085 21.4787C99.3373 21.7379 99.1206 21.9809 98.8588 22.2076C98.5972 22.4344 98.2963 22.642 97.9565 22.8306L101.207 25.9947L98.2904 26.6792L96.033 23.6356C95.9042 23.6771 95.7707 23.717 95.6328 23.7555C95.495 23.7939 95.3551 23.8324 95.2129 23.8714C95.3006 24.3073 95.3974 24.7617 95.5025 25.2344C95.612 25.7068 95.7298 26.2107 95.8556 26.746L92.8611 27.3228C92.8121 26.2145 92.7446 25.1151 92.659 24.0241C92.577 22.9286 92.4687 21.8295 92.334 20.7273C92.299 20.441 92.2652 20.1806 92.2323 19.9462C92.2034 19.7112 92.1714 19.4831 92.1358 19.262C92.1042 19.0403 92.0678 18.8128 92.0263 18.5794C91.985 18.3459 91.938 18.085 91.8855 17.7965C92.3812 17.5761 92.8911 17.3995 93.4148 17.2668C93.9428 17.1336 94.4921 17.0324 95.0626 16.9635C95.3478 16.9289 95.6587 16.9108 95.9955 16.9091C96.3323 16.9074 96.6702 16.9337 97.0095 16.9881C97.3531 17.0419 97.6856 17.1295 98.0072 17.2511C98.3331 17.3721 98.6278 17.5402 98.8917 17.7554C99.1599 17.9701 99.3845 18.2355 99.5658 18.5518C99.747 18.868 99.8646 19.2483 99.9189 19.6927ZM94.3784 18.4184C94.464 19.1191 94.5509 19.7957 94.6393 20.4484C94.7315 21.0962 94.8387 21.7618 94.9609 22.445L95.2227 22.4134C95.5974 22.368 95.9728 22.3118 96.3491 22.2446C96.7254 22.1774 97.0802 22.0933 97.4135 21.9923C97.4449 21.7543 97.4553 21.4864 97.4449 21.1886C97.4381 20.8859 97.4151 20.5743 97.3761 20.2539C97.3511 20.0488 97.3195 19.8445 97.2818 19.641C97.2434 19.4332 97.2019 19.2344 97.1571 19.0448C97.1117 18.8508 97.0593 18.6686 96.9995 18.498C96.9441 18.327 96.8864 18.1735 96.8267 18.0377C96.7661 18.0364 96.695 18.0384 96.6137 18.044C96.5365 18.049 96.449 18.0574 96.3512 18.0692C96.1552 18.0929 95.9431 18.1251 95.7148 18.1657C95.4907 18.2058 95.2774 18.2446 95.0746 18.2822C94.8425 18.3276 94.6105 18.373 94.3784 18.4184Z" fill="var(--fill-0, #242E3F)"/>
<path id="Vector_17" d="M61.9593 34.5846C61.9688 34.4601 61.9761 34.3357 61.9813 34.2107C61.987 34.0817 61.9945 33.9549 62.0038 33.8304C61.7617 34.0185 61.5123 34.1565 61.2564 34.2442C61.0048 34.3279 60.7745 34.3874 60.5653 34.4228C60.3214 34.464 60.0816 34.4795 59.8456 34.4695C59.4182 34.4358 59.0108 34.3366 58.6234 34.1722C58.2401 34.0124 57.9044 33.7894 57.6164 33.5032C57.3287 33.2171 57.1034 32.8712 56.941 32.4654C56.783 32.0557 56.713 31.5903 56.7314 31.0693C56.7712 30.5458 56.8781 30.075 57.0519 29.6569C57.2261 29.2346 57.4659 28.8801 57.7715 28.5933C58.0775 28.3067 58.446 28.0962 58.8778 27.9619C59.3097 27.8233 59.8016 27.7736 60.3534 27.8128C60.3705 27.8142 60.4343 27.8235 60.5449 27.8409C60.6598 27.8543 60.7995 27.8849 60.9637 27.9323C61.1281 27.9756 61.3057 28.0413 61.4969 28.13C61.6883 28.2141 61.8755 28.326 62.0583 28.4656L62.016 27.6657L64.562 27.692C64.4169 28.9197 64.2977 30.143 64.2048 31.3619C64.1821 31.658 64.1608 31.9392 64.1405 32.2052C64.1246 32.4674 64.109 32.7294 64.0933 32.9916C64.0822 33.2499 64.0708 33.5124 64.059 33.7791C64.052 34.0418 64.0438 34.3197 64.0343 34.6127L61.9593 34.5846ZM59.0837 32.7903C59.594 32.809 60.0968 32.814 60.5919 32.8058C61.0872 32.7973 61.5777 32.7647 62.0637 32.7082C62.0914 32.1751 62.1071 31.6583 62.111 31.1576C62.1189 30.6573 62.115 30.1455 62.0992 29.6218L61.7335 29.5928C61.3188 29.56 60.901 29.5422 60.4797 29.5392C60.0632 29.5322 59.6408 29.544 59.2127 29.575C59.1271 30.0217 59.0669 30.4724 59.0322 30.9273C59.019 31.099 59.0111 31.2604 59.0081 31.4111C59.0056 31.5577 59.0052 31.7045 59.0067 31.8514C59.0129 31.9987 59.0208 32.1485 59.0306 32.3003C59.0449 32.4524 59.0626 32.6159 59.0837 32.7903Z" fill="var(--fill-0, #242E3F)"/>
<path id="Vector_18" d="M89.5936 28.72C89.5734 28.5839 89.5509 28.448 89.5262 28.3124C89.5005 28.1721 89.4778 28.034 89.4576 27.8976C89.2427 28.1596 89.0084 28.3694 88.7542 28.5267C88.504 28.6785 88.2707 28.7994 88.0543 28.8887C87.8018 28.9929 87.5477 29.0686 87.2915 29.1158C86.8234 29.1847 86.3608 29.1783 85.9039 29.0964C85.4522 29.0189 85.0369 28.8616 84.6574 28.6245C84.2779 28.3874 83.9511 28.0704 83.6772 27.674C83.4074 27.272 83.2187 26.7884 83.1113 26.2234C83.0263 25.6502 83.0266 25.1174 83.1115 24.6249C83.196 24.1276 83.3674 23.6871 83.6266 23.3037C83.8855 22.9199 84.2309 22.6027 84.6626 22.3521C85.0936 22.0968 85.6107 21.9224 86.2139 21.829C86.2325 21.8262 86.3036 21.8206 86.4267 21.8121C86.5536 21.7983 86.7115 21.7967 86.8995 21.8075C87.0869 21.8135 87.2942 21.8407 87.5215 21.8889C87.748 21.9325 87.9767 22.0069 88.2074 22.1122L87.9669 21.2619L90.7125 20.6641C90.8558 22.0207 91.0261 23.3661 91.2235 24.7004C91.2714 25.0246 91.3168 25.3324 91.36 25.6238C91.407 25.9097 91.454 26.1956 91.5012 26.4813C91.5521 26.762 91.6039 27.0472 91.6563 27.337C91.7129 27.6215 91.7717 27.9225 91.833 28.2399L89.5936 28.72ZM86.062 27.4963C86.6154 27.391 87.1577 27.2731 87.6885 27.1423C88.2192 27.0116 88.739 26.8559 89.2482 26.6755C89.148 26.0951 89.0388 25.5351 88.9207 24.9956C88.8074 24.4553 88.6784 23.9056 88.5333 23.3461L88.1331 23.4047C87.6789 23.4715 87.225 23.5549 86.771 23.6552C86.3211 23.7501 85.8696 23.8668 85.4166 24.0054C85.4331 24.507 85.4783 25.0068 85.5521 25.5048C85.5799 25.6926 85.6105 25.8682 85.6443 26.0312C85.6773 26.1897 85.7127 26.3477 85.7502 26.5055C85.7926 26.6623 85.8376 26.8212 85.8853 26.9824C85.9378 27.1427 85.9966 27.3139 86.062 27.4963Z" fill="var(--fill-0, #242E3F)"/>
<path id="Vector_19" d="M73.8627 27.0107C73.9178 27.6113 73.8861 28.1589 73.7675 28.6541C73.6533 29.1439 73.4607 29.5682 73.1898 29.9271C72.9186 30.2857 72.5734 30.5737 72.1544 30.7907C71.7352 31.008 71.2503 31.1414 70.6998 31.1913C70.3833 31.2102 70.0681 31.1952 69.7547 31.1462C69.6225 31.1243 69.4824 31.0958 69.3343 31.0607C69.1905 31.0203 69.0436 30.9708 68.8935 30.9118C68.7477 30.8475 68.6055 30.7707 68.467 30.6815C68.3285 30.5924 68.1979 30.4854 68.0755 30.3609C68.1654 31.1811 68.2592 31.9911 68.3569 32.7912C68.455 33.596 68.5574 34.3689 68.6641 35.1099L65.9274 35.1834C65.9019 34.3284 65.8651 33.4307 65.8174 32.4907C65.7695 31.5504 65.7139 30.6038 65.6503 29.6505C65.5913 28.692 65.5231 27.7417 65.4461 26.7993C65.3739 25.8566 65.2981 24.9528 65.2186 24.0882L67.6308 23.8698C67.6295 24.1703 67.6351 24.4676 67.6476 24.7619C67.7467 24.6318 67.8568 24.5178 67.9781 24.4195C68.1037 24.3162 68.2329 24.2245 68.3655 24.1447C68.4981 24.0649 68.6317 23.9947 68.7659 23.9341C68.9051 23.873 69.0379 23.8224 69.1647 23.7818C69.4594 23.6824 69.7644 23.6135 70.0794 23.5754C70.3426 23.5515 70.6142 23.5659 70.894 23.6178C71.1736 23.6653 71.4466 23.7494 71.7136 23.8707C71.9852 23.9913 72.2409 24.1475 72.4805 24.3388C72.7249 24.5298 72.9436 24.7569 73.1366 25.0205C73.3299 25.2838 73.49 25.5818 73.6169 25.9143C73.7437 26.2417 73.8254 26.6074 73.8627 27.0107ZM67.9901 29.4314C68.3473 29.4863 68.6809 29.5192 68.9909 29.5297C69.305 29.5351 69.632 29.5226 69.9718 29.4918C70.1728 29.4736 70.3828 29.4473 70.6015 29.4129C70.8204 29.3787 71.058 29.3377 71.3142 29.2902C71.3182 29.0721 71.313 28.857 71.2983 28.6452C71.2885 28.433 71.2735 28.2186 71.2537 28.0025C71.2136 27.5654 71.1572 27.137 71.085 26.7175C71.0121 26.293 70.9247 25.8673 70.8227 25.4407C70.3653 25.453 69.9645 25.4747 69.6198 25.5059C69.4524 25.5212 69.2925 25.5406 69.1401 25.564C68.9875 25.5825 68.8329 25.6062 68.6762 25.635C68.524 25.6584 68.3671 25.6849 68.2056 25.7138C68.0492 25.7426 67.8806 25.7749 67.7005 25.8105C67.7669 26.8459 67.8493 27.8992 67.9476 28.9704L67.9901 29.4314Z" fill="var(--fill-0, #242E3F)"/>
<path id="Vector_20" d="M45.1898 22.5066C43.2311 22.477 41.9977 23.3408 41.952 26.3764C41.9019 29.7241 43.6864 29.9793 45.6451 30.0087C48.2565 30.0483 48.9651 28.2348 48.6467 26.7478L47.1708 26.7255C47.0534 26.9813 47.484 28.5545 45.3286 28.4079C43.9548 28.3144 43.5195 27.8844 43.5417 26.4003C43.5679 24.6484 43.9187 23.9696 45.1678 23.9883C46.5301 24.0091 46.6718 24.5246 46.861 24.6685L45.9424 25.3388L48.8874 25.8392L49.1556 23.1071L48.237 23.7772C47.7876 23.458 47.459 22.6549 45.1898 22.5066Z" fill="var(--fill-0, #242E3F)"/>
<path id="Vector_21" d="M115.583 32.8698C115.644 32.4879 115.126 31.4923 115.126 31.4923L114.358 33.405L113.224 34.8815L113.764 35.5263C113.764 35.5263 115.522 33.2515 115.583 32.8698Z" fill="var(--fill-0, #F3D24F)"/>
<path id="Vector_22" d="M112.096 37.1982C112.351 36.7625 111.429 35.7367 111.429 35.7367L110.233 38.0687L107.821 38.9214C107.821 38.9214 108.105 40.1627 108.867 40.3355C109.629 40.5083 111.842 37.6339 112.096 37.1982Z" fill="var(--fill-0, #F3D24F)"/>
<path id="Vector_23" d="M108.176 37.182C108.65 37.3209 109.393 36.2338 109.393 36.2338L107.364 35.4378L105.732 33.4902C105.732 33.4902 104.665 33.8259 104.724 34.8947C104.783 35.9636 107.702 37.0432 108.176 37.182Z" fill="var(--fill-0, #F3D24F)"/>
<path id="Vector_24" d="M114 34.4759L112.991 34.892L114.094 36.3883L113.501 38.2085C113.501 38.2085 114.763 38.2158 115.122 37.812C115.481 37.4082 114 34.4759 114 34.4759Z" fill="var(--fill-0, #F3D24F)"/>
<path id="Vector_25" d="M115.13 31.4699C114.636 30.7697 112.463 31.3794 111.546 31.6469C111.144 30.9462 109.794 29.093 109.117 29.3935C108.439 29.694 108.281 31.4458 108.187 32.5418C107.292 32.6838 105.088 33.5415 104.908 34.2353C104.728 34.9289 106.472 36.0231 107.552 36.3671C107.587 37.3049 107.573 39.4969 108.201 39.6321C108.848 39.7716 110.218 38.3738 110.973 37.5505C111.848 37.7575 113.666 38.6189 114.349 37.9985C115.031 37.3783 113.984 35.5575 113.555 34.6467C114.19 33.7789 115.641 32.1938 115.13 31.4699Z" fill="var(--fill-0, #FFF537)"/>
<path id="Vector_26" d="M92.58 44.8558C92.8961 44.6351 93.2497 43.569 93.2497 43.569L91.3452 44.3421L89.4996 44.5482L89.4126 45.3864C89.4126 45.3864 92.2636 45.0765 92.58 44.8558Z" fill="var(--fill-0, #DB7372)"/>
<path id="Vector_27" d="M87.0562 45.3424C87.5454 45.224 87.6405 43.8455 87.6405 43.8455L85.1381 44.6004L82.8524 43.4502C82.8524 43.4502 82.1597 44.517 82.5651 45.1875C82.9703 45.8581 86.5671 45.4609 87.0562 45.3424Z" fill="var(--fill-0, #DB7372)"/>
<path id="Vector_28" d="M84.3458 42.499C84.5754 42.9379 85.8701 42.7192 85.8701 42.7192L85.0319 40.7012L85.2942 38.1692C85.2942 38.1692 84.3133 37.6323 83.5882 38.4169C82.8631 39.2016 84.1164 42.0603 84.3458 42.499Z" fill="var(--fill-0, #DB7372)"/>
<path id="Vector_29" d="M90.3292 44.8271L89.3306 44.3873L89.024 46.2234L87.3078 47.059C87.3078 47.059 88.1788 47.9755 88.7175 47.9546C89.2561 47.9336 90.3292 44.8271 90.3292 44.8271Z" fill="var(--fill-0, #DB7372)"/>
<path id="Vector_30" d="M93.2685 43.5564C93.4273 42.7133 91.4819 41.5671 90.6532 41.0902C90.8758 40.3127 91.2671 38.0511 90.5813 37.7703C89.8952 37.4894 88.5299 38.5915 87.6789 39.2844C86.9558 38.7367 84.8109 37.7402 84.1886 38.092C83.5666 38.4438 83.9931 40.4629 84.4961 41.4821C83.8487 42.1588 82.2676 43.6704 82.6067 44.2183C82.9562 44.7826 84.909 44.8013 86.0234 44.7751C86.4826 45.551 87.1278 47.4628 88.0466 47.5252C88.9652 47.5877 89.5432 45.5672 89.8979 44.6244C90.9607 44.4805 93.1043 44.4281 93.2685 43.5564Z" fill="var(--fill-0, #F68887)"/>
<path id="Vector_31" d="M108.477 10.6557C108.793 10.435 109.147 9.36884 109.147 9.36884L107.242 10.1421L105.397 10.3481L105.31 11.1864C105.31 11.1864 108.161 10.8765 108.477 10.6557Z" fill="var(--fill-0, #5698C7)"/>
<path id="Vector_32" d="M102.953 11.1424C103.442 11.0239 103.537 9.64547 103.537 9.64547L101.035 10.4005L98.7493 9.25005C98.7493 9.25005 98.0567 10.317 98.462 10.9875C98.8672 11.6581 102.464 11.2609 102.953 11.1424Z" fill="var(--fill-0, #5698C7)"/>
<path id="Vector_33" d="M100.243 8.299C100.472 8.73778 101.767 8.51924 101.767 8.51924L100.929 6.5011L101.191 3.9693C101.191 3.9693 100.21 3.43222 99.4851 4.21695C98.76 5.00166 100.013 7.86019 100.243 8.299Z" fill="var(--fill-0, #5698C7)"/>
<path id="Vector_34" d="M106.226 10.627L105.228 10.1873L104.921 12.0233L103.205 12.8589C103.205 12.8589 104.076 13.7754 104.614 13.7544C105.153 13.7335 106.226 10.627 106.226 10.627Z" fill="var(--fill-0, #5698C7)"/>
<path id="Vector_35" d="M109.165 9.35641C109.324 8.51322 107.379 7.36704 106.55 6.89027C106.773 6.11263 107.164 3.85108 106.478 3.57018C105.792 3.28929 104.427 4.39151 103.576 5.08433C102.853 4.53665 100.708 3.54011 100.086 3.89191C99.4636 4.2437 99.89 6.26289 100.393 7.28207C99.7456 7.95868 98.1646 9.47048 98.5036 10.0183C98.8531 10.5826 100.806 10.6013 101.92 10.5751C102.38 11.351 103.025 13.2627 103.944 13.3252C104.862 13.3877 105.44 11.3671 105.795 10.4243C106.858 10.2804 109.001 10.2281 109.165 9.35641Z" fill="var(--fill-0, #91CCF4)"/>
<path id="Vector_36" d="M15.4503 18.8672C14.6696 18.7919 13.887 18.7621 13.1077 18.6717C12.6013 18.6129 12.0483 18.6042 11.5508 18.498C11.4399 18.4743 11.7309 18.5357 11.7536 18.5392C11.8976 18.5611 12.0407 18.535 12.1558 18.6272" stroke="var(--stroke-0, #956F43)" stroke-width="3" stroke-linecap="round"/>
<path id="Vector_37" d="M13.7166 18.8831C13.6404 19.2577 13.5952 19.6377 13.5161 20.0113C13.4902 20.1333 13.4327 20.2375 13.5688 20.1255" stroke="var(--stroke-0, #956F43)" stroke-width="3" stroke-linecap="round"/>
<path id="Vector_38" d="M14.9355 20.5717C14.1005 20.4792 13.2608 20.3564 12.4234 20.2885C12.2414 20.2737 12.0594 20.2595 11.8773 20.2448C11.8601 20.2434 11.4591 20.2569 11.6277 20.213" stroke="var(--stroke-0, #956F43)" stroke-width="3" stroke-linecap="round"/>
<path id="Vector_39" d="M11.4321 21.1363C12.0468 21.1853 12.5287 21.3297 13.0883 21.5671C13.4026 21.7005 13.5878 21.9323 13.542 22.3095C13.4222 23.2977 11.7421 23.183 11.1671 23.1931" stroke="var(--stroke-0, #956F43)" stroke-width="3" stroke-linecap="round"/>
<path id="Vector_40" d="M12.4231 21.5409C12.319 22.0322 12.2556 22.5838 12.2495 23.0866" stroke="var(--stroke-0, #956F43)" stroke-width="3" stroke-linecap="round"/>
<path id="Vector_41" d="M13.2061 25.1363C13.4657 23.6379 11.7774 23.9587 11.3009 24.1967C10.4664 24.9441 11.4168 25.691 11.7508 25.5586" stroke="var(--stroke-0, #956F43)" stroke-width="3" stroke-linecap="round"/>
<path id="Vector_42" d="M13.9704 26.6418C13.2021 26.7093 12.4161 26.7271 11.5625 26.5324C11.343 26.4763 10.762 26.36 10.5407 26.3101M13.2476 27.9881C12.9752 27.9514 12.3653 28.4934 11.9219 26.7542M11.9609 26.7916C11.6789 28.4168 11.4273 27.974 10.6151 27.676" stroke="var(--stroke-0, #956F43)" stroke-width="3" stroke-linecap="round"/>
<path id="Vector_43" d="M12.3244 31.9207C13.0257 31.8822 13.2789 30.6124 12.6789 30.0746C12.3928 29.8181 11.7222 29.2136 10.3531 29.8623C9.4032 30.4825 9.79908 31.4884 10.7185 31.6662" stroke="var(--stroke-0, #956F43)" stroke-width="3" stroke-linecap="round"/>
<path id="Vector_44" d="M12.273 33.0652C11.8042 32.9221 10.6223 32.6063 10.1622 32.438C10.1004 32.4154 9.88011 32.2937 9.81559 32.3598C9.62946 32.55 9.55189 33.2144 9.56428 33.4421" stroke="var(--stroke-0, #956F43)" stroke-width="3" stroke-linecap="round"/>
<path id="Vector_45" d="M10.8796 34.6259C10.4612 34.0258 9.52011 34.0924 9.39612 34.5311C9.01466 35.8801 10.0283 35.7 10.589 35.555" stroke="var(--stroke-0, #956F43)" stroke-width="3" stroke-linecap="round"/>
<path id="Vector_46" d="M10.9316 36.9344C10.2571 36.7905 8.22587 36.3954 8.90045 36.5395" stroke="var(--stroke-0, #956F43)" stroke-width="3" stroke-linecap="round"/>
<path id="Vector_47" d="M10.8424 36.9925C10.8747 37.364 11.0766 38.1125 10.5022 38.1553C10.0779 38.187 9.97145 37.8852 9.8567 37.5115C9.83006 37.4246 9.74174 36.6508 9.76702 37.0977C9.78845 37.4766 9.72421 37.7712 9.38286 37.9937C8.72497 38.4226 8.16908 37.6526 8.30416 37.0149C8.34819 36.8069 8.47716 36.666 8.5983 36.5135" stroke="var(--stroke-0, #956F43)" stroke-width="3" stroke-linecap="round"/>
<path id="Vector_48" d="M13.1567 48.1563C13.1466 48.1559 12.9545 48.0549 12.5804 47.8538C12.4571 48.023 12.3434 48.1664 12.2393 48.2838C12.1392 48.4037 12.0475 48.4997 11.9643 48.5718C11.9027 48.5884 11.8289 48.5718 11.7429 48.5218C11.5827 48.429 11.5126 48.3335 11.5326 48.2352C11.6206 48.0822 11.7895 47.8609 12.0393 47.5715C11.8986 47.4899 11.8009 47.4333 11.7462 47.4017C11.6937 47.3661 11.6499 47.338 11.6148 47.3175C11.5835 47.2995 11.5425 47.2758 11.4917 47.2462C11.447 47.2152 11.3602 47.1623 11.2313 47.0875C11.1883 47.0626 11.1369 47.025 11.0773 46.9746C11.0238 46.9229 10.9695 46.8677 10.9143 46.8095C10.8653 46.7498 10.8183 46.6912 10.7732 46.6338C10.732 46.5783 10.7065 46.5323 10.6966 46.4951C10.7052 46.4529 10.723 46.4083 10.7501 46.3613C10.82 46.2398 10.9383 46.1198 11.1051 46.0022C11.2358 45.947 11.4572 45.7929 11.7696 45.5398L12.6893 45.0685C12.7487 45.0558 12.8116 45.0688 12.878 45.1073C13.0422 45.2024 13.0847 45.3186 13.0058 45.4559C13.0035 45.46 12.9791 45.4798 12.9325 45.5154C12.8859 45.5512 12.8204 45.597 12.7362 45.6529C12.6559 45.711 12.5591 45.7751 12.4457 45.8453C12.3346 45.9119 12.2134 45.9776 12.0822 46.0428L11.4091 46.5471C11.4141 46.5658 11.4283 46.5818 11.4517 46.5954C11.483 46.6135 11.5087 46.6233 11.5289 46.6244C11.5512 46.6217 11.5613 46.6224 11.5591 46.6262C11.5809 46.6335 11.6015 46.6429 11.6211 46.6543C11.6468 46.6638 11.6713 46.6755 11.6948 46.6892C11.7378 46.714 11.7805 46.7441 11.8228 46.779C11.8714 46.8125 11.9227 46.8501 11.9768 46.8918C12.0862 46.9552 12.2186 47.0241 12.3739 47.0984L12.6696 46.6657C12.686 46.6281 12.7024 46.5907 12.7188 46.553C12.7391 46.5177 12.7594 46.4824 12.7797 46.447C12.8294 46.3608 12.8826 46.2817 12.9395 46.2101C13.0002 46.1406 13.0565 46.0608 13.1084 45.9705C13.122 45.947 13.1437 45.9048 13.1736 45.8437C13.2058 45.7785 13.2372 45.7104 13.2678 45.6392C13.3022 45.5704 13.3332 45.5072 13.3609 45.45C13.3886 45.3927 13.4047 45.3604 13.4092 45.3524C13.5047 45.2769 13.5993 45.2664 13.6931 45.3209C13.7065 45.3339 13.721 45.3449 13.7366 45.354C13.75 45.367 13.7684 45.3802 13.7919 45.3937C13.8153 45.4073 13.8415 45.4251 13.8706 45.4472C13.8733 45.4698 13.8655 45.515 13.8473 45.5829C13.8352 45.649 13.8156 45.724 13.7884 45.8077C13.7634 45.8873 13.7342 45.9698 13.7008 46.0551C13.6696 46.1363 13.6383 46.2044 13.6067 46.2594C13.5729 46.3182 13.5314 46.3857 13.4824 46.4621C13.4334 46.5382 13.3708 46.6379 13.2947 46.7612C13.2896 46.7792 13.2701 46.8175 13.2362 46.8763C13.2046 46.9313 13.1621 47.0008 13.1085 47.085C13.055 47.1689 12.9905 47.2676 12.915 47.3807L12.9736 47.4147C13.0283 47.4463 13.0866 47.4856 13.1485 47.5318C13.2166 47.5765 13.2933 47.6287 13.3787 47.6887C13.4472 47.7598 13.4443 47.8602 13.3698 47.9897C13.3157 48.0838 13.2446 48.1395 13.1567 48.1563ZM14.9099 49.9965C14.8858 49.9931 14.8618 49.9897 14.8377 49.986C14.8159 49.9787 14.7933 49.9683 14.7699 49.9546L14.7464 49.9411L14.5999 49.8561C14.5725 49.8403 14.5452 49.8244 14.5178 49.8087C14.4966 49.7911 14.4704 49.7733 14.4391 49.7551C14.4079 49.7371 14.3755 49.7209 14.342 49.7065C14.3107 49.6885 14.2775 49.6693 14.2423 49.6488C14.1993 49.624 14.1463 49.5802 14.0834 49.5175C14.0227 49.4509 13.9356 49.3848 13.8223 49.3191C13.7988 49.3055 13.7743 49.2938 13.7486 49.2843C13.7251 49.2706 13.6997 49.256 13.6724 49.24C13.645 49.2243 13.5014 49.1069 13.2416 48.8882C13.2091 48.7544 13.2166 48.6463 13.264 48.564C13.3023 48.4972 13.3555 48.4365 13.4235 48.3816C13.5546 48.3531 13.6624 48.3241 13.7471 48.2947C13.8317 48.2653 13.8971 48.2377 13.9431 48.212C14.0889 48.1397 14.228 48.079 14.3603 48.0303C14.4988 47.9796 14.633 47.932 14.7631 47.8871C14.7855 47.8843 14.8186 47.872 14.8623 47.8504C14.9122 47.8271 14.9652 47.8027 15.0213 47.7779C15.0774 47.7528 15.1335 47.7277 15.1896 47.7026C15.2479 47.6737 15.2967 47.6522 15.3359 47.6383C15.503 47.5836 15.626 47.4874 15.7049 47.3501C15.7816 47.2167 15.7516 47.1103 15.6148 47.0312C15.5679 47.0038 15.5107 46.9812 15.443 46.963C15.3776 46.9406 15.3108 46.9256 15.2426 46.9174C15.1782 46.9115 15.1136 46.9105 15.0486 46.9147C14.9837 46.919 14.9293 46.932 14.8856 46.9536C14.8519 46.976 14.8056 47.0068 14.7467 47.0458C14.6916 47.087 14.6296 47.1269 14.5606 47.1654C14.4938 47.1999 14.4265 47.2263 14.3587 47.2446C14.2932 47.2589 14.235 47.2514 14.1842 47.222C14.11 47.1789 14.0593 47.113 14.0323 47.0241C14.0053 46.9352 14.0154 46.8494 14.0628 46.7671C14.0854 46.7279 14.1337 46.68 14.2079 46.6235C14.2859 46.5695 14.3698 46.5186 14.4596 46.4712C14.5555 46.4222 14.6489 46.3823 14.7397 46.3513C14.8344 46.3223 14.9108 46.3118 14.969 46.3193C15.3088 46.3175 15.6389 46.4094 15.9593 46.5952C16.0843 46.6677 16.1766 46.7473 16.2361 46.8342C16.2995 46.9231 16.3386 47.0138 16.3533 47.1059C16.368 47.1983 16.3615 47.2913 16.3336 47.385C16.3097 47.481 16.2729 47.572 16.2232 47.6584C16.0811 47.9055 15.8884 48.0686 15.6451 48.1472C15.5751 48.1693 15.5078 48.1958 15.4433 48.2263C15.3788 48.2569 15.3174 48.2868 15.259 48.3157C15.2069 48.3431 15.1578 48.3695 15.1118 48.3951C15.068 48.4169 15.0358 48.4322 15.015 48.4411C14.9585 48.4397 14.7255 48.5323 14.3161 48.7186L14.0757 48.7833C14.2086 48.8604 14.3154 48.9327 14.3963 49.0006C14.4833 49.0667 14.5291 49.0957 14.5336 49.0879C14.6 49.1265 14.6801 49.173 14.7739 49.2273C14.8739 49.2799 14.9864 49.3426 15.1114 49.4151C15.1661 49.4468 15.1908 49.5081 15.1854 49.5991C15.1861 49.6885 15.1639 49.7724 15.1187 49.8508C15.0578 49.9569 14.9882 50.0054 14.9099 49.9965ZM17.3277 51.398C17.3036 51.3946 17.2796 51.391 17.2555 51.3876C17.2337 51.3803 17.2111 51.3698 17.1876 51.3561L17.1642 51.3424L17.0177 51.2576C16.9903 51.2416 16.963 51.2259 16.9356 51.2099C16.9144 51.1924 16.8882 51.1746 16.8569 51.1566C16.8256 51.1383 16.7933 51.1222 16.7597 51.108C16.7285 51.09 16.6952 51.0706 16.6601 51.0503C16.6171 51.0255 16.5641 50.9817 16.5011 50.919C16.4404 50.8524 16.3534 50.7863 16.2401 50.7207C16.2166 50.707 16.1921 50.6953 16.1664 50.6855C16.1429 50.6721 16.1175 50.6573 16.0902 50.6415C16.0628 50.6256 15.9192 50.5084 15.6593 50.2897C15.6269 50.1559 15.6344 50.0478 15.6818 49.9653C15.7201 49.8987 15.7733 49.8378 15.8413 49.7831C15.9723 49.7546 16.0802 49.7254 16.1649 49.696C16.2495 49.6666 16.3149 49.6392 16.3608 49.6135C16.5067 49.5412 16.6458 49.4806 16.7781 49.4315C16.9166 49.3812 17.0508 49.3335 17.1809 49.2884C17.2033 49.2858 17.2363 49.2735 17.2801 49.2519C17.33 49.2284 17.383 49.2042 17.4391 49.1791C17.4952 49.1541 17.5513 49.1292 17.6073 49.1041C17.6657 49.0752 17.7145 49.0537 17.7537 49.0398C17.9207 48.9849 18.0437 48.8889 18.1227 48.7516C18.1994 48.618 18.1694 48.5118 18.0326 48.4324C17.9857 48.4053 17.9285 48.3825 17.8608 48.3643C17.7954 48.3422 17.7286 48.3269 17.6603 48.3187C17.596 48.3127 17.5314 48.3121 17.4664 48.3162C17.4015 48.3205 17.3471 48.3333 17.3034 48.3552C17.2697 48.3775 17.2234 48.4081 17.1645 48.4473C17.1094 48.4885 17.0474 48.5284 16.9784 48.567C16.9116 48.6014 16.8443 48.6278 16.7765 48.6461C16.711 48.6604 16.6528 48.6529 16.602 48.6233C16.5278 48.5804 16.4771 48.5143 16.4501 48.4254C16.423 48.3365 16.4332 48.251 16.4806 48.1684C16.5032 48.1292 16.5515 48.0816 16.6256 48.025C16.7037 47.971 16.7876 47.9201 16.8774 47.8727C16.9733 47.8237 17.0666 47.7838 17.1575 47.7525C17.2522 47.7238 17.3286 47.7131 17.3868 47.7209C17.7265 47.7188 18.0566 47.8109 18.3771 47.9965C18.5021 48.069 18.5944 48.1488 18.6539 48.2355C18.7173 48.3246 18.7564 48.4153 18.7711 48.5075C18.7858 48.5998 18.7792 48.6926 18.7514 48.7863C18.7275 48.8823 18.6907 48.9735 18.641 49.0599C18.4989 49.3071 18.3062 49.4698 18.0629 49.5487C17.9929 49.5708 17.9256 49.5973 17.8611 49.6278C17.7966 49.6584 17.7352 49.6883 17.6768 49.7172C17.6246 49.7446 17.5756 49.771 17.5295 49.7966C17.4858 49.8182 17.4536 49.8337 17.4328 49.8426C17.3763 49.8413 17.1433 49.9336 16.7339 50.1201L16.4935 50.1849C16.6264 50.2617 16.7332 50.3342 16.8141 50.4019C16.9011 50.468 16.9469 50.4972 16.9514 50.4895C17.0178 50.528 17.0979 50.5743 17.1917 50.6288C17.2917 50.6814 17.4042 50.7439 17.5292 50.8164C17.5839 50.8481 17.6086 50.9097 17.6031 51.0006C17.6038 51.09 17.5817 51.1739 17.5365 51.2523C17.4756 51.3581 17.406 51.4067 17.3277 51.398ZM19.7433 52.3274C19.6861 52.3727 19.624 52.4126 19.5573 52.4471C19.4944 52.484 19.4176 52.518 19.3268 52.549C19.2382 52.5761 19.1295 52.6021 19.0007 52.6267C18.8719 52.6514 18.7117 52.6762 18.5201 52.7013C18.0595 52.6958 17.755 52.65 17.6065 52.564C17.5283 52.5187 17.4977 52.4722 17.5147 52.4245C17.5356 52.3791 17.5675 52.3192 17.6104 52.2446C17.6465 52.1819 17.6965 52.1402 17.7604 52.1197C17.8243 52.0991 17.8988 52.0875 17.9839 52.0843C18.0689 52.0814 18.1638 52.0841 18.2685 52.0925C18.3731 52.1007 18.4861 52.1035 18.6076 52.1007C18.6294 52.108 18.6658 52.1083 18.7167 52.1012C18.7716 52.0964 18.8414 52.0793 18.926 52.0499L19.2918 51.9165C19.436 51.8381 19.5386 51.7457 19.5995 51.6399C19.6559 51.5417 19.6821 51.4418 19.678 51.3401C19.6802 51.2368 19.6627 51.1404 19.6256 51.0508C19.5885 50.9612 19.5376 50.8821 19.473 50.8132C19.4146 50.7428 19.3541 50.6894 19.2915 50.6532C19.2485 50.6283 19.2022 50.6092 19.1524 50.5959C19.1088 50.5813 19.0655 50.5613 19.0226 50.5364C18.9991 50.523 18.9662 50.4986 18.9238 50.4635C18.8853 50.4309 18.8502 50.3921 18.8185 50.3476C18.7868 50.303 18.7624 50.2548 18.7453 50.2031C18.7321 50.1536 18.739 50.1053 18.7661 50.0583C18.7841 50.0268 18.7996 50.0045 18.8126 49.9911L18.9215 49.8424C18.9463 49.7991 18.9894 49.7377 19.0508 49.6584C19.1161 49.5811 19.1813 49.5038 19.2466 49.4265C19.3119 49.3492 19.3684 49.2827 19.4162 49.2266C19.468 49.173 19.4927 49.1481 19.4905 49.152C19.592 48.9755 19.6756 48.8618 19.7413 48.8109C19.8109 48.7624 19.8789 48.7573 19.9454 48.7959C20.0353 48.8479 20.1173 48.9138 20.1913 48.9933C20.2654 49.0729 20.3318 49.1297 20.3904 49.1636C20.4021 49.1705 20.41 49.175 20.4139 49.1771C20.4239 49.1778 20.4348 49.1814 20.4465 49.1883C20.4544 49.1928 20.4912 49.2195 20.557 49.2681C20.6228 49.3166 20.6945 49.3686 20.7721 49.424C20.8496 49.4794 20.9174 49.5294 20.9754 49.5734C21.0374 49.6196 21.0683 49.6429 21.0683 49.6429C21.1603 49.7275 21.1634 49.8445 21.0777 49.9936C20.9874 50.1504 20.8767 50.1935 20.7455 50.1226C20.707 50.09 20.6507 50.0522 20.5764 50.0091C20.5044 49.9621 20.4187 49.9071 20.3194 49.8444C20.2842 49.8239 20.2309 49.7852 20.1595 49.7282C20.0943 49.6693 20.0441 49.6299 20.0089 49.6094C19.9738 49.5891 19.9411 49.5779 19.9109 49.5761C19.8569 49.6338 19.793 49.704 19.7193 49.7868C19.6479 49.8659 19.5697 49.9564 19.4848 50.059C19.5707 50.1087 19.6611 50.1689 19.756 50.2396C19.8547 50.3125 19.9433 50.4033 20.0217 50.5113C20.1024 50.6158 20.1657 50.7414 20.2115 50.8882C20.2573 51.0351 20.2753 51.2077 20.2655 51.406C20.2482 51.6263 20.2035 51.7991 20.1313 51.9245C20.0659 52.0383 19.9366 52.1726 19.7433 52.3274Z" fill="var(--fill-0, #956F43)"/>
<path id="Vector_49" d="M16.3221 17.7142C15.6331 17.6656 11.4319 17.9123 10.743 17.8637C10.054 17.8151 5.83066 38.6998 6.53042 38.8619C7.2302 39.024 11.8222 40.017 12.4896 39.8387C13.1571 39.6604 17.011 17.7629 16.3221 17.7142Z" stroke="var(--stroke-0, #956F43)" stroke-width="2"/>
</g>
<defs>
<clipPath id="clip0_0_4">
<rect width="119" height="57" fill="white"/>
</clipPath>
</defs>
</svg>
